<svg width="263" height="53" viewBox="0 0 263 53" fill="none" xmlns="http://www.w3.org/2000/svg">
<g clip-path="url(#clip0_1739_4818)">
<g clip-path="url(#clip1_1739_4818)">
<path d="M49.3089 12.4494C49.8253 12.4778 50.0475 13.1035 49.7891 13.5926L33.6807 44.0733C33.4074 44.5903 32.8509 44.8208 32.3057 44.7801C32.2789 44.7781 32.2522 44.7764 32.2256 44.7749L25.4644 44.5379C20.7402 44.3834 18.7023 40.7537 20.9658 36.4707L32.5572 14.5371C33.3078 13.1169 34.898 12.388 36.51 12.443L49.3089 12.4494Z" fill="#8ED6FF"/>
<path d="M46.8671 0.0002355C47.3331 -0.0125653 47.5471 0.499068 47.314 0.903316L30.0951 31.1006C29.8199 31.5779 29.3849 32.3295 28.8347 32.3446H22.5325C18.1166 32.5649 16.1846 28.9939 18.6086 24.7898L31.0221 3.26047C31.8259 1.86649 33.6302 0.0730618 35.1368 0L46.8671 0.0002355Z" fill="#3181EB"/>
<path d="M53.7702 27.3977L40.9501 49.1821C40.1201 50.5926 38.2446 52.2228 36.6036 52.2486H26.3119C25.2858 52.2661 24.6913 50.9114 25.2044 50.0394L42.558 20.5515C42.7901 20.1571 43.2164 19.9113 43.6806 19.9042L49.5575 19.9336C54.3668 19.8516 56.2736 23.1438 53.7702 27.3977Z" fill="#1F6EB1"/>
</g>
<path d="M79.045 39.1245H73.2607L82.0743 13.5938H89.0304L97.8315 39.1245H92.0472L85.6521 19.428H85.4526L79.045 39.1245ZM78.6835 29.0892H92.3464V33.3028H78.6835V29.0892ZM106.969 39.4362C105.515 39.4362 104.198 39.0622 103.017 38.3142C101.846 37.5579 100.915 36.4484 100.225 34.9857C99.5436 33.5147 99.2028 31.7113 99.2028 29.5754C99.2028 27.3814 99.556 25.5572 100.262 24.1028C100.969 22.6401 101.908 21.5472 103.08 20.8242C104.26 20.0928 105.552 19.7271 106.957 19.7271C108.029 19.7271 108.922 19.91 109.637 20.2757C110.36 20.633 110.942 21.0818 111.382 21.622C111.831 22.1539 112.172 22.6775 112.404 23.1927H112.567V13.5938H117.865V39.1245H112.629V36.0578H112.404C112.155 36.5897 111.802 37.1175 111.345 37.641C110.896 38.1563 110.31 38.5843 109.587 38.9251C108.872 39.2658 108 39.4362 106.969 39.4362ZM108.652 35.2101C109.508 35.2101 110.231 34.9774 110.821 34.512C111.42 34.0383 111.877 33.3776 112.193 32.5299C112.517 31.6822 112.679 30.6891 112.679 29.5505C112.679 28.4119 112.521 27.4229 112.205 26.5835C111.889 25.7442 111.432 25.0959 110.834 24.6388C110.235 24.1817 109.508 23.9532 108.652 23.9532C107.78 23.9532 107.044 24.19 106.446 24.6637C105.847 25.1375 105.394 25.794 105.087 26.6334C104.779 27.4728 104.626 28.4452 104.626 29.5505C104.626 30.6641 104.779 31.649 105.087 32.505C105.403 33.3527 105.856 34.0175 106.446 34.4996C107.044 34.9733 107.78 35.2101 108.652 35.2101ZM127.542 28.0545V39.1245H122.231V19.9765H127.292V23.3548H127.517C127.94 22.2412 128.651 21.3602 129.648 20.712C130.646 20.0554 131.855 19.7271 133.276 19.7271C134.606 19.7271 135.765 20.018 136.754 20.5998C137.743 21.1815 138.512 22.0126 139.06 23.093C139.609 24.1651 139.883 25.445 139.883 26.9326V39.1245H134.572V27.88C134.581 26.7082 134.282 25.794 133.675 25.1375C133.068 24.4726 132.233 24.1402 131.169 24.1402C130.454 24.1402 129.823 24.2939 129.274 24.6014C128.734 24.9089 128.31 25.3577 128.003 25.9478C127.704 26.5295 127.55 27.2318 127.542 28.0545ZM149.529 39.486C148.307 39.486 147.218 39.2741 146.263 38.8503C145.307 38.4181 144.551 37.7823 143.994 36.9429C143.445 36.0952 143.171 35.0398 143.171 33.7765C143.171 32.7127 143.366 31.8193 143.757 31.0963C144.148 30.3733 144.679 29.7915 145.353 29.351C146.026 28.9106 146.79 28.5781 147.646 28.3537C148.511 28.1293 149.417 27.9714 150.364 27.88C151.478 27.7637 152.375 27.6556 153.057 27.5559C153.738 27.4479 154.233 27.29 154.54 27.0822C154.848 26.8744 155.001 26.5669 155.001 26.1597V26.0849C155.001 25.2954 154.752 24.6845 154.253 24.2524C153.763 23.8202 153.065 23.6041 152.159 23.6041C151.203 23.6041 150.443 23.816 149.878 24.2399C149.313 24.6554 148.939 25.179 148.756 25.8106L143.844 25.4117C144.094 24.2482 144.584 23.2426 145.315 22.3949C146.047 21.5389 146.99 20.8823 148.145 20.4252C149.309 19.9598 150.655 19.7271 152.184 19.7271C153.248 19.7271 154.266 19.8518 155.238 20.1011C156.219 20.3505 157.087 20.7369 157.844 21.2605C158.608 21.7841 159.211 22.4572 159.651 23.28C160.092 24.0945 160.312 25.071 160.312 26.2096V39.1245H155.276V36.4692H155.126C154.819 37.0676 154.407 37.5953 153.892 38.0524C153.377 38.5012 152.758 38.8544 152.034 39.112C151.311 39.3614 150.476 39.486 149.529 39.486ZM151.05 35.821C151.831 35.821 152.521 35.6672 153.119 35.3597C153.717 35.0439 154.187 34.6201 154.528 34.0882C154.868 33.5563 155.039 32.9538 155.039 32.2806V30.2486C154.873 30.3566 154.644 30.4564 154.353 30.5478C154.071 30.6309 153.751 30.7098 153.393 30.7846C153.036 30.8511 152.679 30.9135 152.321 30.9716C151.964 31.0215 151.64 31.0672 151.349 31.1088C150.726 31.2002 150.181 31.3456 149.716 31.5451C149.25 31.7445 148.889 32.0146 148.631 32.3554C148.374 32.6878 148.245 33.1033 148.245 33.602C148.245 34.325 148.507 34.8777 149.03 35.26C149.562 35.634 150.235 35.821 151.05 35.821ZM173.084 39.4985C171.122 39.4985 169.435 39.083 168.022 38.2519C166.618 37.4125 165.537 36.249 164.781 34.7614C164.033 33.2737 163.659 31.5617 163.659 29.6253C163.659 27.6639 164.037 25.9436 164.794 24.4643C165.558 22.9767 166.643 21.8173 168.047 20.9862C169.452 20.1468 171.122 19.7271 173.059 19.7271C174.729 19.7271 176.192 20.0305 177.447 20.6372C178.702 21.2439 179.695 22.0957 180.426 23.1927C181.158 24.2898 181.561 25.5779 181.635 27.0573H176.624C176.483 26.1015 176.109 25.3328 175.502 24.751C174.904 24.1609 174.118 23.8659 173.146 23.8659C172.323 23.8659 171.604 24.0903 170.989 24.5391C170.383 24.9796 169.909 25.6236 169.568 26.4713C169.227 27.319 169.057 28.3454 169.057 29.5505C169.057 30.7722 169.223 31.811 169.556 32.667C169.896 33.523 170.374 34.1754 170.989 34.6242C171.604 35.073 172.323 35.2974 173.146 35.2974C173.753 35.2974 174.297 35.1727 174.779 34.9234C175.269 34.6741 175.672 34.3126 175.988 33.8389C176.312 33.3568 176.524 32.7792 176.624 32.1061H181.635C181.552 33.5688 181.153 34.8569 180.439 35.9706C179.732 37.0759 178.756 37.9402 177.509 38.5635C176.262 39.1868 174.787 39.4985 173.084 39.4985ZM190.346 28.0545V39.1245H185.036V13.5938H190.197V23.3548H190.421C190.853 22.2245 191.551 21.3394 192.515 20.6995C193.479 20.0513 194.689 19.7271 196.143 19.7271C197.473 19.7271 198.632 20.018 199.621 20.5998C200.618 21.1732 201.391 22.0001 201.94 23.0805C202.497 24.1526 202.771 25.4367 202.762 26.9326V39.1245H197.452V27.88C197.46 26.6999 197.161 25.7815 196.554 25.125C195.956 24.4684 195.117 24.1402 194.036 24.1402C193.313 24.1402 192.673 24.2939 192.116 24.6014C191.568 24.9089 191.136 25.3577 190.82 25.9478C190.512 26.5295 190.354 27.2318 190.346 28.0545ZM206.942 39.1245V19.9765H212.252V39.1245H206.942ZM209.609 17.5082C208.82 17.5082 208.143 17.2464 207.578 16.7228C207.021 16.1909 206.742 15.5551 206.742 14.8155C206.742 14.0841 207.021 13.4567 207.578 12.9331C208.143 12.4012 208.82 12.1352 209.609 12.1352C210.399 12.1352 211.072 12.4012 211.629 12.9331C212.194 13.4567 212.477 14.0841 212.477 14.8155C212.477 15.5551 212.194 16.1909 211.629 16.7228C211.072 17.2464 210.399 17.5082 209.609 17.5082ZM225.233 39.4985C223.263 39.4985 221.568 39.0996 220.147 38.3017C218.734 37.4956 217.645 36.357 216.88 34.886C216.116 33.4067 215.734 31.6573 215.734 29.6378C215.734 27.6681 216.116 25.9395 216.88 24.4518C217.645 22.9642 218.721 21.8048 220.109 20.9738C221.505 20.1427 223.143 19.7271 225.021 19.7271C226.284 19.7271 227.46 19.9308 228.549 20.338C229.646 20.7369 230.601 21.3394 231.416 22.1456C232.239 22.9517 232.879 23.9656 233.336 25.1873C233.793 26.4007 234.021 27.8218 234.021 29.4508V30.9093H217.853V27.6182H229.022C229.022 26.8536 228.856 26.1763 228.524 25.5862C228.191 24.9962 227.73 24.5349 227.14 24.2025C226.558 23.8618 225.881 23.6914 225.108 23.6914C224.302 23.6914 223.587 23.8784 222.964 24.2524C222.349 24.618 221.867 25.1125 221.518 25.7358C221.169 26.3508 220.99 27.0365 220.982 27.7928V30.9218C220.982 31.8692 221.156 32.6878 221.505 33.3776C221.863 34.0674 222.366 34.5993 223.014 34.9733C223.662 35.3473 224.431 35.5343 225.32 35.5343C225.91 35.5343 226.45 35.4511 226.941 35.2849C227.431 35.1187 227.851 34.8694 228.2 34.537C228.549 34.2045 228.815 33.7973 228.998 33.3153L233.909 33.6394C233.66 34.8195 233.149 35.8501 232.376 36.731C231.611 37.6036 230.622 38.2851 229.409 38.7755C228.204 39.2575 226.812 39.4985 225.233 39.4985ZM242.798 13.5938V39.1245H237.487V13.5938H242.798Z" fill="#3181EB"/>
</g>
<defs>
<clipPath id="clip0_1739_4818">
<rect width="262.978" height="52.249" fill="white"/>
</clipPath>
<clipPath id="clip1_1739_4818">
<rect width="37.3207" height="52.249" fill="white" transform="translate(17.5524)"/>
</clipPath>
</defs>
</svg>
