<svg width="512" height="512" viewBox="0 0 512 512" fill="none" xmlns="http://www.w3.org/2000/svg">
<g clip-path="url(#clip0_1611_2596)">
<path d="M376.535 130.136C381.287 130.398 383.333 136.156 380.954 140.658L232.693 421.202C230.178 425.961 225.055 428.082 220.038 427.708C219.791 427.69 219.545 427.674 219.3 427.66L157.07 425.478C113.588 424.057 94.8321 390.649 115.665 351.228L222.353 149.351C229.26 136.28 243.897 129.571 258.734 130.077L376.535 130.136Z" fill="#8ED6FF"/>
<path d="M354.063 15.5522C358.352 15.4343 360.322 20.1434 358.176 23.8641L199.694 301.8C197.161 306.193 193.156 313.111 188.093 313.25H130.088C89.4431 315.277 71.6608 282.409 93.9714 243.715L208.225 45.5594C215.623 32.7291 232.23 16.2224 246.098 15.55L354.063 15.5522Z" fill="#3181EB"/>
<path d="M417.598 267.721L299.602 468.224C291.962 481.206 274.7 496.211 259.597 496.448H164.872C155.427 496.609 149.955 484.14 154.678 476.115L314.401 204.708C316.537 201.077 320.46 198.815 324.733 198.75L378.824 199.021C423.089 198.266 440.639 228.568 417.598 267.721Z" fill="#1F6EB1"/>
</g>
<defs>
<clipPath id="clip0_1611_2596">
<rect width="343.5" height="480.9" fill="white" transform="translate(84.25 15.55)"/>
</clipPath>
</defs>
</svg>
